<svg version="1" xmlns="http://www.w3.org/2000/svg" width="800" height="800" viewBox="0 0 600.000000 600.000000"><path d="M292.5 43.7c-3.2 7.1-6.9 15.3-8.2 18.3-1.4 3-4.5 9.7-6.9 14.8-2.4 5.1-4.4 9.5-4.4 9.7 0 .3-1.3 3.4-3 6.8-1.6 3.5-3 6.9-3 7.5 0 .7-.5 1.2-1 1.2-.6 0-.9.3-.8.7.1.5-.5 2.1-1.2 3.8-.7 1.6-1.4 3.2-1.5 3.5 0 .3-1.3 3-2.7 6-1.4 3-4.2 9.1-6.3 13.5-2 4.4-4.5 9.8-5.6 12.1-1 2.2-1.9 4.6-1.9 5.2 0 .7-.4 1.2-1 1.2-.5 0-1 .9-1 2s-.4 2-1 2c-.5 0-.9.3-.8.7.2 1-1.9 6.3-3.2 8.3-.6.8-1.3 2.2-1.6 3-.3.8-1.7 4.1-3.1 7.2-1.4 3.1-2.5 6-2.4 6.4.2.4-.1 1-.6 1.3-1.2.8-5.3 9.7-5.3 11.5 0 .7-.7 1.9-1.5 2.6-.8.7-1.5 1.8-1.5 2.4 0 .6-.9 2.8-1.9 4.8-1.1 1.9-1.7 3.9-1.4 4.2.4.3.1.6-.5.6-.7 0-1.2.4-1.2 1 0 .5-1.3 3.7-2.9 6.9-1.6 3.3-2.7 6.2-2.5 6.4.3.2-.2 1-1.1 1.7-.8.7-1.5 1.7-1.5 2.2 0 1.2-6.5 16-10 22.8l-1.8 3.5-11.3.3c-11.8.3-14 .3-17.4-.2-1.1-.1-2.8.2-3.7.6-1 .5-1.8.5-1.8.1s-4.6-.7-10.2-.5c-10.7.3-12.9.3-16.3-.2-1.1-.1-2.8.2-3.7.6-1.1.5-1.8.5-1.8-.1s-1.1-.6-2.9-.1c-1.6.4-3.2.6-3.4.4-.9-.9-6.2-1-7.9-.2-1 .5-1.8.5-1.8.1 0-1.1-5.2-.9-7.1.3-1.5.9-2.4 2.5-7.4 13.9-1.4 3.2-3.3 6.7-4.2 7.7-.9 1-1.3 1.8-.9 1.8s.1 1-.6 2.2c-.7 1.3-1.3 2.5-1.3 2.8-.1.3-1.5 3.4-3.2 7-1.7 3.6-4.7 10.3-6.8 15-2.1 4.7-5.5 12.1-7.7 16.5s-4.1 8.7-4.3 9.5c-.1.8-1.7 4.5-3.5 8.2-1.8 3.7-3 7.3-2.8 7.9.5 1.4 9.8 2 9.8.6 0-.4.5-.5 1.2-.1 1.7 1 5.8 1.1 6.4.2.3-.5 1-.5 1.6-.1 1.6.9 18 1.3 69.1 1.6l43.8.2 1.9 3.5c1 1.9 3 6.2 4.5 9.5s3.3 7.2 4.2 8.8c.8 1.5 1.2 3.1.9 3.6-.3.5.1 1.4.9 2.1.8.7 1.5 1.8 1.5 2.4 0 .7.5 1.7 1.2 2.4.6.6 1.3 1.7 1.4 2.4.1.7 2.5 6.1 5.3 12.1 2.8 5.9 5.1 10.9 5.1 11.2 0 .2 2.3 5.1 5 10.9 2.8 5.8 5 11.1 5 11.8 0 .7.9 2.4 2 3.8s2 3 2 3.6c0 .5 1.1 3.2 2.4 6 3.7 7.8 6.9 14.9 6.8 15.4 0 .3.9 1.7 2 3.2 1.1 1.6 1.7 2.8 1.3 2.8-.3 0 .2 1.5 1.2 3.3.9 1.7 1.8 3.4 1.8 3.7.1.3 1.1 2.5 2.2 5 7.1 15 8.7 18.6 8.8 19 .1.3 1.3 3.1 2.8 6.2 1.5 3.2 3.9 8.4 5.3 11.5 1.4 3.2 3.6 8 4.9 10.8 9.9 21.2 12.5 26.7 13.6 29.9.7 2 1.7 3.6 2.1 3.6.4 0 .6 1 .5 2.2-.2 1.2.5 3.7 1.6 5.6l2 3.4 2.1-3.4c1.2-1.8 2.1-3.5 2.2-3.8.4-2.7 1.8-6 2.5-6 .5 0 .9-.9.9-2s.5-2 1-2c.6 0 1-.6.8-1.3-.1-.6.7-2.8 1.7-4.7 1.1-1.9 1.9-3.7 2-4 0-.3 2.5-5.5 5.4-11.5 3-6.1 5.6-11.5 5.7-12 .2-1.1 4.2-10.1 7.9-18 4.5-9.6 11.8-25.7 12-26.5.2-1 6.9-15.5 14.1-30.9 2.4-5.1 4.4-9.9 4.4-10.6 0-.7.7-1.8 1.5-2.5s1.5-1.7 1.5-2.2c0-.6 1.3-3.8 2.9-7.2 3.1-6.4 9.1-19.2 13.4-28.6 3.2-7 7.3-16.2 13.6-30.5 1.7-3.9 3.8-8.1 4.5-9.5l1.5-2.5 44.3-.1c24.4-.1 44.5-.3 44.8-.4.3-.2 5.2-.4 11-.5 5.8-.1 11.1-.5 11.8-.9.7-.4 1.2-.3 1.2.1 0 1.1 18.3 1.1 19.1 0 .3-.5-.6-3.2-2.2-6.2-1.5-2.9-2.5-5.6-2.2-5.9.4-.3.1-.6-.6-.6s-1-.4-.6-.9c.3-.5.1-1.2-.5-1.6-.6-.4-.8-1-.5-1.4.2-.5-1.9-5.5-4.7-11.2-2.9-5.7-5.2-10.6-5.3-10.9-1.4-5-1.9-6-2.7-6-.5 0-.7-.4-.4-.9.3-.5-.3-2-1.5-3.4-1.1-1.5-2-2.9-2-3.1-.2-2.3-1.3-4.6-2.2-4.6-.6 0-.8-.3-.4-.6.3-.4-.1-2.1-1-3.8-1-1.7-1.8-3.3-1.8-3.6 0-.3-.6-1.5-1.3-2.8-.7-1.2-1-2.2-.7-2.2.3 0-.6-2-1.9-4.5-1.4-2.5-2.3-4.5-2-4.5.3 0-.4-1.3-1.5-2.8-1.1-1.6-2.3-4-2.6-5.5-.4-1.5-1.1-2.7-1.6-2.7s-.9-.9-.9-2-.3-1.9-.7-1.9c-.5.1-1.2.1-1.8 0-.5-.1-20.4-.2-44.1-.2-39.4 0-43.3-.2-44.6-1.7-1.9-2.2-3.9-6-8.1-15.2-1.9-4.1-4.6-10.1-6.1-13.3-1.4-3.1-3.8-8.3-5.2-11.5-1.4-3.1-3.6-8-4.9-10.7-5.4-11.6-9.9-21.3-12-26-1.2-2.8-3.7-8-5.4-11.8-1.7-3.7-3.1-7.2-3.1-7.7 0-.6-.4-1-.8-1-.5 0-.9-.6-.9-1.3 0-.6-2.1-5.5-4.5-10.7-6-12.7-8.8-18.8-8.8-19.3 0-.3-2.5-5.7-5.5-12.2-3-6.4-5.5-11.8-5.5-12 0-.2-1.8-4.3-4.1-9.2-2.3-4.8-5.1-11.1-6.4-13.8-1.3-2.8-3.8-8.2-5.5-12-4.6-9.9-9.3-20.3-11.5-25.3-1-2.3-2.2-4.2-2.6-4.2-.4 0-3.3 5.7-6.4 12.7zm8.5 68.4c0 .5 1.8 4.8 4 9.5s4 9.2 4 10c0 .8.5 1.4 1 1.4.6 0 1 .7 1 1.5s1.2 4 2.7 7.2c1.5 3.2 2.8 6.3 2.9 6.9.1.6 1.3 3.5 2.7 6.5 1.4 3 2.8 6.4 3.2 7.6.3 1.3 1.1 2.3 1.6 2.3s.9.7.9 1.5.4 2.3.9 3.3c1.7 3.1 5.8 12.6 6.6 15.2.4 1.4 1.1 2.9 1.5 3.5.4.5 2.1 4.2 3.8 8.2 2.3 5.6 2.7 7.5 1.8 8.2-.7.6-6.2 1-12.3 1-6.1-.1-11.6.1-12.1.5-.6.3-1.4.2-1.7-.4-.5-.8-1.1-.8-1.9-.1-.7.6-1.5.8-1.8.6-.8-.8-41.5-.8-42.7-.1-.5.4-1.3.2-1.6-.4-.4-.7-1.1-.8-1.8-.2-1.3 1-5.1 0-6.1-1.6-.3-.5.1-2.2.9-3.8 1.2-2.5 3.5-7.8 4-9.4.2-.7 3.9-8.8 6.8-15.1 4.4-9.5 6.6-14.5 6.9-15.9.2-.8.6-1.7.9-2 .3-.3 1.8-3.7 3.4-7.5 1.5-3.9 3.6-9 4.7-11.5 4.4-9.8 4.8-10.8 4.8-11.9 0-.6.4-1.1.9-1.1s1.1-1 1.5-2.3c.3-1.3 1.3-4.1 2.3-6.3.9-2.1 1.7-4.3 1.7-4.7.2-2.3 4.6-2.9 4.6-.6zm51.2 121.8c2.3.1 5.7 7.4 6.1 13.1l.2 2.5-44 .2c-24.2.1-48 .2-53 .2-4.9.1-10.1 0-11.5-.2-1.4-.2-3.3.1-4.2.5-1 .5-1.8.5-1.8 0s-1.1-.7-2.4-.5c-3.5.7-4-1.1-1.7-6.2 1.1-2.5 1.8-4.5 1.5-4.5-.3 0 .3-1.2 1.4-2.8l2-2.7 52.8.1c29.1.1 53.7.2 54.6.3zm7 112c.9.1-3 11.1-4.8 13.6-1.3 1.8-4 1.9-55.5 1.9-46.8.1-54.2-.1-55.4-1.4-.7-.8-1.3-1.7-1.3-2 .1-.3-.8-2.7-2-5.3-1.2-2.6-1.9-5.3-1.6-6 .3-1 13-1.2 60.2-1.1 32.8.1 60 .2 60.4.3zM332.5 390h4.4c1.4 0 2.6.1 2.8.3.1.2-.7 2.8-1.8 5.8s-2.5 6.7-3.1 8.4c-.6 1.6-1.5 3.6-2.1 4.2-.5.7-.7 1.3-.3 1.3.3 0-.7 2.6-2.3 5.7-1.5 3.2-3.2 6.9-3.6 8.3-.4 1.4-2 5.2-3.6 8.5-1.5 3.3-2.9 6.7-3.1 7.5-.2.8-.6 1.7-.9 2-.3.3-2.1 4.3-4 9s-3.7 8.6-4.1 8.8c-.5.2-.8 1-.8 1.9 0 .8-.7 2.7-1.4 4.1-.8 1.5-2.2 4.3-3 6.2-4.2 10.1-5.7 13-6.6 13-1.2 0-8.7-15.7-8.8-18.3 0-.4-.7-1.8-1.4-3-.8-1.2-2.2-4-3-6.2-.9-2.2-2.4-5.8-3.4-8s-1.7-4.3-1.6-4.8c.1-.4-.2-.7-.8-.7-.5 0-1-.6-1-1.4 0-.8-.7-2.7-1.5-4.3-.8-1.5-3.8-8.2-6.6-14.8-5.5-12.8-7.7-17.9-11.5-26.3-2.7-5.9-2.9-6.9-1.3-7.4.8-.3 55.1-.1 74.4.2z"/></svg>